<?xml version="1.0" encoding="UTF-8"?> <svg xmlns="http://www.w3.org/2000/svg" width="180.116" height="53.074" viewBox="0 0 180.116 53.074"><defs><style> .cls-1{fill:none}.cls-2{clip-path:url(#clip-path)}.cls-3{fill:#e7292b}.cls-4{fill:#fff}.cls-5{fill:#1c1c1c} </style><clipPath id="clip-path"><path id="Rectangle_9" d="M0 0h53.216v53.074H0z" class="cls-1" data-name="Rectangle 9"></path></clipPath></defs><g id="Logo"><g id="Group_169" data-name="Group 169"><g id="Group_168" class="cls-2" data-name="Group 168"><path id="Path_1072" d="M1002.663 721.24a26.525 26.525 0 1 1 26.524 26.567 26.545 26.545 0 0 1-26.524-26.567" class="cls-3" data-name="Path 1072" transform="translate(-1002.663 -694.673)"></path></g></g><path id="Path_1073" d="M1177.868 870.161v8.5h2.121v-4.233h23.341v4.233h2.123v-8.5z" class="cls-4" data-name="Path 1073" transform="translate(-1165.135 -857.408)"></path><path id="Path_1074" d="M1203.344 1133.376v4.235H1180v-4.235h-2.12v8.5h27.586v-8.5z" class="cls-4" data-name="Path 1074" transform="translate(-1165.148 -1101.495)"></path><path id="Path_1075" d="M1258.513 1001.938v2.82h-15.562v-2.82h-1.414v8.5h1.414v-2.838h15.562v2.835h1.415v-8.5z" class="cls-4" data-name="Path 1075" transform="translate(-1224.178 -979.609)"></path><g id="Group_171" data-name="Group 171" transform="translate(87.846 10.008)"><g id="Group_173" data-name="Group 173"><path id="Path_1077" d="M2216.486 855.452c0 1.079.512 5.778 5.585 5.778a5.176 5.176 0 0 0 5.537-5.389c0-3.58-3.165-4.355-5.537-5.217-4.608-1.636-5.724-2.154-7.307-3.577a8.11 8.11 0 0 1-2.325-5.992c0-3.7 3.117-8.663 9.633-8.663 5.723 0 9.863 3.491 9.863 8.878h-5.023c0-3.531-2.793-4.611-4.84-4.611a4.553 4.553 0 0 0-4.608 4.356c0 3.057 3.118 3.878 4.608 4.394 4.327 1.51 10.561 2.761 10.561 10.432 0 5.559-4.233 9.654-10.561 9.654-4.745 0-10.609-2.929-10.609-10.043z" class="cls-5" data-name="Path 1077" transform="translate(-2211.461 -832.392)"></path></g></g><path id="Path_1076" d="M1896.059 872.618l-13.076-16.077h-.092v16.077h-5.026v-31.894h5.026v15.818h.092l13.076-15.818h6.188l-13.447 15.817 13.447 16.077z" class="cls-5" data-name="Path 1076" transform="translate(-1814.263 -830.11)"></path><path id="Path_1078" d="M2545.037 872.618v-31.894h18.563v4.267h-13.54v9.395h13.54v4.267h-13.54v9.7h13.54v4.267z" class="cls-5" data-name="Path 1078" transform="translate(-2432.95 -830.11)"></path><path id="Path_1079" d="M2839.381 872.618v-11.509l-10.7-20.386h5.63l7.583 14.957 7.539-14.957h5.587l-10.611 20.386v11.509z" class="cls-5" data-name="Path 1079" transform="translate(-2695.978 -830.11)"></path><path id="Path_1080" d="M3225.662 840.724v31.894h18.567v-4.266h-13.544v-9.7h13.544v-4.266h-13.544v-9.4h13.544v-4.266z" class="cls-5" data-name="Path 1080" transform="translate(-3064.113 -830.11)"></path></g></svg> 